# xmcd CD database file
#
# Track frame offsets:
#	150
#	15160
#	33440
#	58312
#	72341
#	87033
#	104645
#	117868
#	158240
#
# Disc length: 2367 seconds
#
# Revision: 1
# Processed by: cddbd v1.5.2PL0 Copyright (c) Steve Scherf et al.
# Submitted via: CDex 1.51
#
DISCID=6f093d09
DTITLE=BEBO and CIGALA - LAGRIMAS NEGRAS
DYEAR=2004
DGENRE=Latin
TTITLE0=Inolvidable
TTITLE1=Veinte años
TTITLE2=Lágrimas Negras
TTITLE3=Nieblas del riachuelo
TTITLE4=Corazón loco
TTITLE5=Se me olvidó que te olvidé
TTITLE6=Vete de mi
TTITLE7=La bien pagá
TTITLE8=Eu sei que vou te amar
EXTD=YEAR: 2004
EXTT0=
EXTT1=
EXTT2=
EXTT3=
EXTT4=
EXTT5=
EXTT6=
EXTT7=
EXTT8=
PLAYORDER=
